<svg xmlns="http://www.w3.org/2000/svg" viewBox="0 0 594.37 72.32"><defs><style>.cls-1{fill:#d6315a;}</style></defs><title>logo-red</title><g id="レイヤー_2" data-name="レイヤー 2"><g id="ロゴ"><path class="cls-1" d="M34,31l-3.45,6a1.07,1.07,0,0,1-.93.53H22.72a1.06,1.06,0,0,1-.92-1.6l3.45-6a1.08,1.08,0,0,1,.93-.54H33.1A1.07,1.07,0,0,1,34,31Z"/><path class="cls-1" d="M18.63,23.08l3.46,6a1.09,1.09,0,0,1,0,1.08l-3.46,6a1.07,1.07,0,0,1-1.86,0l-3.46-6a1.09,1.09,0,0,1,0-1.08l3.46-6A1.07,1.07,0,0,1,18.63,23.08Z"/><path class="cls-1" d="M10,29.93l3.45,6a1.06,1.06,0,0,1-.92,1.6H5.65A1.07,1.07,0,0,1,4.72,37L1.27,31a1.07,1.07,0,0,1,.92-1.61H9.11A1.08,1.08,0,0,1,10,29.93Z"/><path class="cls-1" d="M20.2,72.32h-5A6.47,6.47,0,0,1,9.6,69.09L.87,54a6.43,6.43,0,0,1,0-6.46l2.5-4.34A6.47,6.47,0,0,1,9,39.94H26.44A6.47,6.47,0,0,1,32,43.16l2.5,4.34a6.43,6.43,0,0,1,0,6.46L25.8,69.09A6.47,6.47,0,0,1,20.2,72.32Z"/><path class="cls-1" d="M143.55,2.19H117.12L95.49,20.86c-20.38-23.4-49-31.63-78.13-.72,25.7-16,47.75-12.78,64.46,12.52l-46,39.66H62.29L90.2,48.24a183.72,183.72,0,0,1,8.58,24.08h22.31a134.19,134.19,0,0,0-15.41-37.44Z"/><path class="cls-1" d="M549,25H561.3l7.58,12a2.16,2.16,0,0,0,3.53,0l7.91-12h12.32l-15.46,21.3a1.7,1.7,0,0,0,0,2l17.2,24.07H582.3L572.17,57.5a2.17,2.17,0,0,0-3.47,0L558.22,72.32H546.07L564,48.25a1.68,1.68,0,0,0,0-2Z"/><path class="cls-1" d="M188.86,41.13V24.51h10.27V72.32H188.86V53a2,2,0,0,0-2.06-1.87H168.62A2,2,0,0,0,166.56,53V72.32H156.29V24.51h10.27V41.13A2,2,0,0,0,168.62,43H186.8A2,2,0,0,0,188.86,41.13Z"/><path class="cls-1" d="M477,35.2c-2.76-2.73-5.21-3.77-8.53-3.77-4.19,0-7.43,2.3-7.43,5.17,0,2.52,1.81,3.84,8,5.87,5.77,1.89,8.14,2.87,10.51,4.69a11.62,11.62,0,0,1,4.67,9.78c0,9.16-7.43,15.38-18.34,15.38-7.67,0-13.36-2.79-18.1-8.88l6.64-5.66A12.44,12.44,0,0,0,465.49,64c4.75,0,8.15-2.72,8.15-6.57a5.41,5.41,0,0,0-2.85-4.68c-1-.63-3.08-1.4-7.35-2.8-9.49-3.07-13-6.43-13-12.58,0-7.83,7-13.56,16.45-13.56A24.92,24.92,0,0,1,482.41,29Z"/><path class="cls-1" d="M512.24,72.32V34.47a2,2,0,0,0-2.06-1.86H498v-8.1H536.8v8.1H524.58a2,2,0,0,0-2.06,1.86V72.32Z"/><polygon class="cls-1" points="428.59 51.32 428.59 43.22 407.15 43.22 396.34 43.22 396.34 51.32 407.15 51.32 428.59 51.32"/><polygon class="cls-1" points="396.34 64.22 396.34 72.32 429.34 72.32 429.34 64.22 407.15 64.22 396.34 64.22"/><polygon class="cls-1" points="396.34 24.51 396.34 32.61 407.15 32.61 429.34 32.61 429.34 24.51 396.34 24.51"/><path class="cls-1" d="M358.41,51.6l12.31-27.09h11.14L359.1,72.32h-5.54L331.19,24.51h11.23l12.16,27.08A2.18,2.18,0,0,0,358.41,51.6Z"/><path class="cls-1" d="M310,54.72a1.9,1.9,0,0,1,1-3,13.55,13.55,0,0,0,4.35-2.3,13.19,13.19,0,0,0,4.74-10.44,13.38,13.38,0,0,0-5.21-10.65C312,26.08,307.29,25,301.44,25h-20.1V72.32h10.28V34.26a2,2,0,0,1,2.05-1.85h5.95c6.48,0,9.88,2.41,9.88,7.1s-3.55,7.24-10,7.24H297.8v6.54l14.23,19h12.65Z"/><path class="cls-1" d="M243.8,24.51h-7.75L213.2,72.32h10.91l4.75-9.9,3.32-7.37,5.71-12.57a2.17,2.17,0,0,1,3.83,0l5.48,12.54,3.24,7.37,4.5,9.9h11Z"/></g></g></svg>